<svg width="216" height="60" viewBox="0 0 216 60" fill="none" xmlns="http://www.w3.org/2000/svg">
<g clip-path="url(#clip0_178_7165)">
<path d="M75.3101 21.2031L65.1773 40.2505L55.0444 21.2031H60.5665L65.1773 30.996L69.786 21.2031H75.3101Z" fill="white"/>
<path d="M83.0713 11.0356C83.6542 11.6181 83.9426 12.3246 83.9426 13.1511C83.9426 13.9777 83.6542 14.7302 83.0312 15.3527C82.4063 15.9751 81.6592 16.3053 80.788 16.3053C79.9167 16.3053 79.1676 15.9751 78.5447 15.3527C77.9218 14.7302 77.6313 13.9837 77.6313 13.1511C77.6313 12.3185 77.9218 11.6181 78.5046 11.0356C79.0875 10.4532 79.8326 10.165 80.7459 10.165H80.83C81.7434 10.165 82.4905 10.4572 83.0713 11.0356Z" fill="white"/>
<path d="M83.3618 21.2031H78.2964V39.4619H83.3618V21.2031Z" fill="white"/>
<path d="M212.252 33.61L215.864 35.6434C215.076 37.0544 213.953 38.1332 212.503 38.9217C211.049 39.6682 209.386 40.0405 207.517 40.0405C204.902 40.0405 202.576 39.2119 200.541 37.4687C198.508 35.7255 197.511 33.3618 197.511 30.4158C197.511 27.4697 198.464 25.1881 200.333 23.4449C202.202 21.7017 204.321 20.8311 206.686 20.8311C209.428 20.8311 211.671 21.7017 213.374 23.4449C215.076 25.1881 215.948 27.4697 215.948 30.2897C215.948 30.9121 215.908 31.3704 215.781 31.7007H202.536C202.658 32.9055 203.239 33.9422 204.237 34.7728C205.234 35.6014 206.438 36.0177 207.892 36.0177C208.845 36.0177 209.719 35.8095 210.508 35.3512C211.297 34.8969 211.88 34.3145 212.252 33.61ZM202.492 28.3403H211.089C210.964 27.3856 210.508 26.5571 209.719 25.8926C208.929 25.2281 207.932 24.8959 206.728 24.8959C205.773 24.8959 204.859 25.2281 203.988 25.9346C203.115 26.6391 202.616 27.4277 202.492 28.3403Z" fill="white"/>
<path d="M192.071 33.0687L194.979 36.307C192.53 38.8368 189.912 40.0416 187.13 40.0416C184.554 40.0416 182.311 39.211 180.402 37.5098C178.493 35.8086 177.538 33.485 177.538 30.5389C177.538 28.9198 177.828 27.4688 178.409 26.1819C178.99 24.895 179.739 23.8583 180.694 23.1097C181.648 22.3632 182.685 21.7848 183.767 21.3685C184.844 20.9542 185.926 20.7461 187.007 20.7461C189.703 20.7461 192.155 21.8248 194.396 23.9423L191.822 27.2607C190.412 25.8497 188.874 25.1432 187.214 25.1432C185.842 25.1432 184.722 25.6415 183.851 26.6802C182.978 27.717 182.563 28.9618 182.563 30.4129C182.563 31.8639 183.02 33.0287 183.931 34.0254C184.844 35.0201 186.01 35.5184 187.378 35.5184C189.125 35.5184 190.701 34.6879 192.071 33.0687Z" fill="white"/>
<path d="M173.261 29.2941V39.4592H168.196V29.2941C168.196 26.4721 167.116 25.0611 164.957 25.0611C164.084 25.0611 163.295 25.4354 162.59 26.1419C161.883 26.8444 161.552 27.8831 161.552 29.252V39.4592H156.485V21.2024H161.552V23.1938C162.009 22.4473 162.672 21.8669 163.503 21.4086C164.334 20.9542 165.206 20.7461 166.161 20.7461C170.894 20.7461 173.261 23.6101 173.261 29.2941Z" fill="white"/>
<path d="M150.673 39.4592H145.813C145.649 38.5466 145.565 37.718 145.565 37.0115C145.191 37.8821 144.526 38.5886 143.53 39.129C142.535 39.6253 141.495 39.9155 140.376 39.9155C138.339 39.9155 136.68 39.3771 135.39 38.2143C134.104 37.0535 133.481 35.6005 133.481 33.8993C133.481 30.539 135.683 28.6296 140.125 28.1733C142.324 27.9652 143.987 27.717 145.149 27.4668V27.2607C145.149 26.4721 144.858 25.8497 144.319 25.3934C143.781 24.937 143.073 24.7289 142.202 24.7289C140.333 24.7289 138.839 25.2272 137.674 26.1819L134.976 23.3599C136.928 21.6587 139.336 20.7861 142.202 20.7861C144.403 20.7861 146.312 21.3685 147.891 22.5294C149.469 23.6922 150.256 25.2693 150.256 27.2607V34.854C150.256 36.5131 150.382 38.0482 150.673 39.4592ZM143.987 35.0201C144.776 34.4397 145.233 33.6091 145.191 32.4883L145.149 31.1194C144.9 31.1614 144.277 31.2435 143.322 31.3675C142.366 31.4916 141.579 31.6597 140.956 31.7418C139.294 31.99 138.465 32.6965 138.465 33.9814C138.465 34.5217 138.671 34.9781 139.088 35.3523C139.502 35.7266 140.125 35.8907 140.914 35.8907C142.16 35.8907 143.198 35.6005 143.987 35.0201Z" fill="white"/>
<path d="M128.374 9.99902H123.309V39.4596H128.374V9.99902Z" fill="white"/>
<path d="M117.163 11.0356C117.744 11.6181 118.034 12.3246 118.034 13.1511C118.034 13.9777 117.744 14.7302 117.121 15.3527C116.498 15.9751 115.749 16.3053 114.878 16.3053C114.007 16.3053 113.259 15.9751 112.637 15.3527C112.014 14.7302 111.721 13.9837 111.721 13.1511C111.721 12.3185 112.014 11.6181 112.594 11.0356C113.175 10.4572 113.924 10.165 114.836 10.165H114.922C115.833 10.165 116.58 10.4572 117.163 11.0356Z" fill="white"/>
<path d="M117.454 21.2031H112.388V39.4619H117.454V21.2031Z" fill="white"/>
<path d="M107.862 43.3185C107.862 45.2698 107.03 46.889 105.328 48.1338C103.625 49.3767 101.176 49.9991 97.9371 49.9991C94.6984 49.9991 92.0825 49.3367 90.338 48.0498C88.5934 46.7649 87.7222 45.1457 87.7222 43.2364C87.7222 41.9075 88.4292 40.4144 89.7972 38.7973C89.01 38.0508 88.6355 37.0961 88.7176 35.9753C88.8017 34.8545 89.3005 33.8999 90.0896 33.0293L90.7947 32.2807C89.7972 31.286 89.3005 29.8751 89.3005 28.0898C89.3005 26.0984 90.1718 24.3572 91.8742 22.9042C93.5767 21.4512 95.6117 20.7046 97.9371 20.7046C99.3912 20.7046 100.595 20.9548 101.55 21.4091L103.377 19.792C104.501 20.4144 105.662 21.3691 106.866 22.654L105.08 24.4392C106.077 25.476 106.576 26.7629 106.576 28.2579C106.576 30.3734 105.827 32.0326 104.332 33.2774C102.838 34.5223 100.721 35.1447 97.9371 35.1447C96.4009 35.1447 95.0729 34.9366 93.9513 34.5223L93.7029 34.7725C92.8717 35.6011 92.9138 36.2655 93.8692 36.7218C94.6563 37.0961 95.9863 37.3022 97.897 37.3022C100.761 37.3022 102.88 37.5104 104.248 37.8426C106.66 38.4651 107.862 40.2083 107.862 43.3185ZM103.419 43.3185C103.419 42.4479 103.045 41.8674 102.257 41.6193C101.384 41.3691 99.9721 41.245 97.9792 41.245C95.8861 41.245 94.3619 41.1229 93.4025 40.8407C93.4025 40.8367 93.4065 40.8347 93.4105 40.8307H93.3684C93.3804 40.8347 93.3905 40.8367 93.4025 40.8407C92.6193 41.6253 92.2488 42.4519 92.2488 43.3185C92.2488 44.8555 94.1596 45.6441 97.9792 45.6441C99.7658 45.6441 101.136 45.4359 102.049 45.0217C102.96 44.6054 103.419 44.025 103.419 43.3185ZM100.553 30.6216C101.26 30.1232 101.592 29.3347 101.592 28.2979C101.592 27.2612 101.218 26.5547 100.471 26.0164C99.7237 25.476 98.8925 25.2278 97.9371 25.2278C96.9817 25.2278 96.1505 25.476 95.4054 26.0164C94.6563 26.5547 94.2838 27.3032 94.2838 28.2979C94.2838 29.2926 94.6143 30.1232 95.3213 30.6216C96.0283 31.1199 96.8996 31.3681 97.9371 31.3681C98.9746 31.3681 99.8479 31.1199 100.553 30.6216Z" fill="white"/>
<path d="M93.4108 40.8301C93.4108 40.8301 93.4048 40.8361 93.4028 40.8401C93.3907 40.8361 93.3807 40.8341 93.3687 40.8301H93.4108Z" fill="white"/>
<path d="M22.5171 15.0005L35.5321 28.0056L43.0391 20.5044L22.5171 0L1.99707 20.5044L9.50405 28.0056L22.5171 15.0005Z" fill="white"/>
<path d="M22.5169 44.9997L0 22.5V37.5005L22.5169 60.0002L45.0359 37.5005V22.5L22.5169 44.9997Z" fill="white"/>
<path d="M130.156 46.567C130.024 46.2628 129.852 45.9986 129.625 45.7785C129.399 45.5583 129.133 45.3842 128.82 45.2661C128.506 45.144 128.167 45.084 127.799 45.084C127.43 45.084 127.09 45.144 126.777 45.2661C126.463 45.3882 126.196 45.5583 125.972 45.7785C125.748 45.9986 125.57 46.2608 125.441 46.567C125.313 46.8732 125.247 47.2115 125.247 47.5877C125.247 47.964 125.311 48.3002 125.441 48.6085C125.57 48.9127 125.746 49.1768 125.972 49.397C126.196 49.6172 126.465 49.7913 126.777 49.9094C127.092 50.0314 127.43 50.0915 127.799 50.0915C128.167 50.0915 128.508 50.0314 128.82 49.9094C129.135 49.7873 129.401 49.6172 129.625 49.397C129.85 49.1768 130.028 48.9147 130.156 48.6085C130.284 48.3042 130.351 47.964 130.351 47.5877C130.351 47.2115 130.286 46.8752 130.156 46.567ZM129.375 48.2842C129.295 48.5004 129.185 48.6865 129.031 48.8446C128.882 49.0047 128.704 49.1288 128.496 49.2229C128.288 49.3169 128.055 49.359 127.797 49.359C127.538 49.359 127.304 49.3129 127.098 49.2229C126.889 49.1288 126.711 49.0067 126.563 48.8446C126.415 48.6845 126.301 48.4964 126.218 48.2842C126.138 48.0721 126.1 47.8399 126.1 47.5857C126.1 47.3316 126.138 47.1034 126.218 46.8872C126.295 46.6711 126.409 46.485 126.563 46.3269C126.711 46.1667 126.889 46.0427 127.098 45.9486C127.306 45.8545 127.538 45.8125 127.797 45.8125C128.055 45.8125 128.29 45.8585 128.496 45.9486C128.704 46.0427 128.882 46.1647 129.031 46.3269C129.179 46.489 129.293 46.6751 129.375 46.8872C129.451 47.0994 129.493 47.3316 129.493 47.5857C129.493 47.8399 129.455 48.0681 129.375 48.2842Z" fill="white"/>
<path d="M131.644 45.9864H131.628L131.526 45.2018H130.851V49.9752H131.648V47.6515C131.648 45.8162 133.048 45.8763 133.048 45.8763H133.527V45.1518H133.072C133.072 45.1518 132.003 45.1057 131.642 45.9864H131.644Z" fill="white"/>
<path d="M138.909 46.5887C138.787 46.2844 138.616 46.0163 138.4 45.7921C138.184 45.5679 137.921 45.3938 137.611 45.2657C137.301 45.1376 136.958 45.0796 136.584 45.0796C136.209 45.0796 135.917 45.1517 135.628 45.2958C135.34 45.4399 135.085 45.64 134.869 45.8982H134.847V42.9941H134.05V49.975H134.725L134.847 49.1264H134.869C135.017 49.3986 135.256 49.6268 135.578 49.8129C135.901 49.999 136.277 50.0931 136.706 50.0931C137.134 50.0931 137.351 50.0291 137.643 49.907C137.935 49.7789 138.19 49.6068 138.402 49.3806C138.618 49.1565 138.785 48.8923 138.907 48.5841C139.029 48.2798 139.089 47.9436 139.089 47.5834C139.089 47.2231 139.029 46.8889 138.907 46.5827V46.5867L138.909 46.5887ZM138.114 48.2838C138.038 48.5 137.923 48.6861 137.769 48.8442C137.621 49.0043 137.443 49.1284 137.234 49.2225C137.026 49.3166 136.794 49.3586 136.535 49.3586C136.277 49.3586 136.043 49.3126 135.836 49.2225C135.628 49.1284 135.45 49.0063 135.302 48.8442C135.153 48.6841 135.039 48.496 134.957 48.2838C134.877 48.0717 134.839 47.8395 134.839 47.5854C134.839 47.3312 134.877 47.103 134.957 46.8869C135.033 46.6707 135.147 46.4846 135.302 46.3265C135.45 46.1664 135.628 46.0423 135.836 45.9482C136.045 45.8541 136.277 45.8121 136.535 45.8121C136.794 45.8121 137.028 45.8581 137.234 45.9482C137.443 46.0423 137.621 46.1644 137.769 46.3265C137.917 46.4886 138.032 46.6747 138.114 46.8869C138.19 47.099 138.232 47.3312 138.232 47.5854C138.232 47.8395 138.194 48.0677 138.114 48.2838Z" fill="white"/>
<path d="M140.91 49.2088C141.149 49.5471 141.415 49.7812 141.711 49.9073C142.008 50.0334 142.36 50.0974 142.767 50.0974C143.173 50.0974 143.238 50.0714 143.466 50.0174C143.694 49.9614 143.899 49.8773 144.077 49.7592C144.255 49.6411 144.403 49.483 144.509 49.2969C144.62 49.1068 144.67 48.8766 144.67 48.6024C144.67 48.3282 144.628 48.1661 144.547 48C144.467 47.8399 144.353 47.6998 144.213 47.5937C144.069 47.4836 143.903 47.3996 143.712 47.3355C143.522 47.2715 143.322 47.2174 143.109 47.1794C142.953 47.1534 142.799 47.1194 142.655 47.0773C142.507 47.0353 142.378 46.9893 142.268 46.9332C142.158 46.8772 142.068 46.8151 142.002 46.7431C141.938 46.671 141.904 46.587 141.904 46.4849C141.904 46.3828 141.934 46.2808 141.988 46.1927C142.048 46.1087 142.12 46.0406 142.208 45.9846C142.296 45.9285 142.398 45.8905 142.509 45.8625C142.619 45.8365 142.733 45.8205 142.839 45.8205C143.077 45.8205 143.28 45.8705 143.446 45.9766C143.612 46.0826 143.746 46.2187 143.848 46.3868L144.509 45.9505C144.349 45.6463 144.119 45.4242 143.83 45.2901C143.542 45.156 143.228 45.0859 142.885 45.0859C142.543 45.0859 142.444 45.116 142.232 45.18C142.02 45.24 141.83 45.3281 141.659 45.4462C141.489 45.5603 141.355 45.7084 141.253 45.8825C141.151 46.0606 141.1 46.2648 141.1 46.4929C141.1 46.7211 141.147 46.9372 141.237 47.0953C141.331 47.2515 141.453 47.3795 141.605 47.4776C141.757 47.5757 141.936 47.6557 142.14 47.7198C142.344 47.7798 142.561 47.8339 142.785 47.8799C142.913 47.9059 143.039 47.9399 143.163 47.974C143.288 48.008 143.392 48.054 143.49 48.1101C143.584 48.1701 143.66 48.2381 143.718 48.3182C143.776 48.3983 143.802 48.5043 143.802 48.6364C143.802 48.7685 143.772 48.8786 143.708 48.9667C143.648 49.0607 143.564 49.1368 143.462 49.1948C143.36 49.2529 143.246 49.3009 143.117 49.3269C142.989 49.3529 142.867 49.3689 142.745 49.3689C142.46 49.3689 142.222 49.3089 142.036 49.1948C141.85 49.0807 141.675 48.9226 141.523 48.7245L140.89 49.2128H140.902L140.91 49.2088Z" fill="white"/>
<path d="M145.198 48.9887C145.08 49.1068 145.02 49.2509 145.02 49.421C145.02 49.5911 145.084 49.7352 145.206 49.8533C145.334 49.9714 145.473 50.0314 145.631 50.0314C145.789 50.0314 145.927 49.9714 146.056 49.8533C146.184 49.7352 146.246 49.5911 146.246 49.421C146.246 49.2509 146.186 49.1068 146.068 48.9887C145.949 48.8706 145.805 48.8105 145.635 48.8105C145.465 48.8105 145.32 48.8706 145.202 48.9887H145.198Z" fill="white"/>
<path d="M140.455 45.2021H139.658V49.9755H140.455V45.2021Z" fill="white"/>
<path d="M140.513 42.9902H139.592V43.8849H140.513V42.9902Z" fill="white"/>
<path d="M112.196 49.7591L114.037 43.7549H115.307L117.148 49.7591V49.9312H116.328L115.758 48.0279H113.586L113.015 49.9312H112.196V49.7591ZM115.535 47.2894L114.732 44.6055C114.724 44.5795 114.706 44.5715 114.672 44.5715C114.638 44.5715 114.62 44.5795 114.612 44.6055L113.809 47.2894H115.533H115.535Z" fill="white" stroke="white" stroke-width="0.105714" stroke-miterlimit="10"/>
<path d="M117.993 45.4699H118.756V45.9682C118.756 46.0103 118.774 46.0283 118.816 46.0283C118.858 46.0283 118.876 46.0023 118.91 45.9602C119.202 45.574 119.657 45.3418 120.31 45.3418C121.426 45.3418 122.113 45.9842 122.113 47.1431V49.931H121.34V47.2731C121.34 46.4586 120.911 46.0303 120.138 46.0303C119.279 46.0303 118.764 46.5446 118.764 47.6174V49.933H117.991V45.4739L117.993 45.4699Z" fill="white" stroke="white" stroke-width="0.105714" stroke-miterlimit="10"/>
<path d="M149.99 50.0771C150.08 50.6355 150.548 51.0037 151.372 51.0037C152.303 51.0037 152.84 50.4553 152.84 49.5027V49.1944C152.84 49.1604 152.822 49.1424 152.788 49.1424C152.754 49.1424 152.736 49.1504 152.71 49.1844C152.367 49.6308 151.86 49.8029 151.249 49.8029C150.126 49.8029 149.094 49.0303 149.094 47.5733C149.094 46.1163 150.124 45.3438 151.249 45.3438C151.858 45.3438 152.349 45.5319 152.718 45.9702C152.778 46.0482 152.812 46.0643 152.856 46.0643C152.908 46.0643 152.916 46.0382 152.934 45.9862L153.096 45.4718H153.611V49.4606C153.611 50.8756 152.77 51.6902 151.362 51.6902C149.953 51.6902 149.22 51.0217 149.13 50.0771H149.99ZM151.38 49.1164C152.195 49.1164 152.882 48.558 152.882 47.5733C152.882 46.5886 152.195 46.0302 151.38 46.0302C150.564 46.0302 149.877 46.5886 149.877 47.5733C149.877 48.558 150.564 49.1164 151.38 49.1164Z" fill="white" stroke="white" stroke-width="0.105714" stroke-miterlimit="10"/>
<path d="M154.814 45.4701H155.588V46.0705C155.588 46.1126 155.606 46.1306 155.648 46.1306C155.7 46.1306 155.716 46.1046 155.734 46.0625C155.932 45.6342 156.241 45.4541 156.849 45.4541H157.348V46.2086H156.729C155.982 46.2086 155.588 46.5429 155.588 47.4015V49.9312H154.814V45.4721V45.4701Z" fill="white" stroke="white" stroke-width="0.105714" stroke-miterlimit="10"/>
<path d="M162.37 47.7014C162.37 49.2445 161.34 50.0591 160.044 50.0591C158.748 50.0591 157.719 49.2445 157.719 47.7014C157.719 46.1583 158.748 45.3438 160.044 45.3438C161.34 45.3438 162.37 46.1583 162.37 47.7014ZM158.498 47.7014C158.498 48.7742 159.141 49.3746 160.042 49.3746C160.943 49.3746 161.586 48.7742 161.586 47.7014C161.586 46.6286 160.943 46.0282 160.042 46.0282C159.141 46.0282 158.498 46.6286 158.498 47.7014Z" fill="white" stroke="white" stroke-width="0.105714" stroke-miterlimit="10"/>
<path d="M167.409 49.9309H166.646V49.4326C166.646 49.3905 166.628 49.3725 166.586 49.3725C166.544 49.3725 166.526 49.3985 166.492 49.4406C166.191 49.8188 165.745 50.059 165.092 50.059C163.976 50.059 163.289 49.4165 163.289 48.2577V45.4698H164.062V48.1276C164.062 48.9422 164.491 49.3705 165.264 49.3705C166.123 49.3705 166.638 48.8561 166.638 47.7834V45.4678H167.411V49.9269L167.409 49.9309Z" fill="white" stroke="white" stroke-width="0.105714" stroke-miterlimit="10"/>
<path d="M171.016 50.0591C170.389 50.0591 169.883 49.871 169.54 49.4327C169.514 49.3986 169.488 49.3726 169.446 49.3726C169.404 49.3726 169.386 49.3986 169.386 49.4407V51.5601H168.613V45.4699H169.376V45.9682C169.376 46.0103 169.394 46.0363 169.436 46.0363C169.478 46.0363 169.504 46.0103 169.53 45.9762C169.883 45.5299 170.389 45.3418 171.014 45.3418C172.096 45.3418 173.212 46.0703 173.212 47.6994C173.212 49.3286 172.096 50.0571 171.014 50.0571L171.016 50.0591ZM170.888 46.0283C169.987 46.0283 169.344 46.6287 169.344 47.7014C169.344 48.7742 169.987 49.3746 170.888 49.3746C171.789 49.3746 172.432 48.7742 172.432 47.7014C172.432 46.6287 171.789 46.0283 170.888 46.0283Z" fill="white" stroke="white" stroke-width="0.105714" stroke-miterlimit="10"/>
<path d="M178.563 50.0591C177.223 50.0591 176.272 49.2185 176.272 47.7014C176.272 46.1843 177.225 45.3438 178.563 45.3438C179.901 45.3438 180.64 46.1583 180.692 47.103H179.893C179.815 46.4765 179.421 46.0302 178.563 46.0302C177.662 46.0302 177.053 46.6307 177.053 47.7034C177.053 48.7762 177.662 49.3766 178.563 49.3766C179.465 49.3766 179.867 48.8782 179.927 48.1757H180.726C180.658 49.2485 179.903 50.0631 178.563 50.0631V50.0591Z" fill="white" stroke="white" stroke-width="0.105714" stroke-miterlimit="10"/>
<path d="M186.04 47.7014C186.04 49.2445 185.01 50.0591 183.715 50.0591C182.419 50.0591 181.389 49.2445 181.389 47.7014C181.389 46.1583 182.419 45.3438 183.715 45.3438C185.01 45.3438 186.04 46.1583 186.04 47.7014ZM182.168 47.7014C182.168 48.7742 182.811 49.3746 183.713 49.3746C184.614 49.3746 185.257 48.7742 185.257 47.7014C185.257 46.6286 184.614 46.0282 183.713 46.0282C182.811 46.0282 182.168 46.6286 182.168 47.7014Z" fill="white" stroke="white" stroke-width="0.105714" stroke-miterlimit="10"/>
<path d="M186.985 45.4699H187.749V45.9682C187.749 46.0103 187.767 46.0283 187.809 46.0283C187.843 46.0283 187.861 46.0103 187.903 45.9502C188.151 45.572 188.572 45.3418 189.173 45.3418C189.868 45.3418 190.332 45.642 190.581 46.1223C190.607 46.1644 190.623 46.1904 190.675 46.1904C190.717 46.1904 190.735 46.1724 190.769 46.1043C191.009 45.616 191.464 45.3418 192.219 45.3418C193.249 45.3418 193.85 46.0283 193.85 47.101V49.931H193.076V47.1871C193.076 46.4145 192.69 46.0283 191.961 46.0283C191.36 46.0283 190.801 46.4145 190.801 47.4012V49.931H190.028V47.1871C190.028 46.4145 189.641 46.0283 188.912 46.0283C188.311 46.0283 187.753 46.4145 187.753 47.4012V49.931H186.979V45.4719L186.985 45.4699Z" fill="white" stroke="white" stroke-width="0.105714" stroke-miterlimit="10"/>
<path d="M197.435 50.0591C196.808 50.0591 196.301 49.871 195.959 49.4327C195.933 49.3986 195.907 49.3726 195.864 49.3726C195.822 49.3726 195.804 49.3986 195.804 49.4407V51.5601H195.031V45.4699H195.794V45.9682C195.794 46.0103 195.812 46.0363 195.854 46.0363C195.897 46.0363 195.923 46.0103 195.949 45.9762C196.301 45.5299 196.808 45.3418 197.433 45.3418C198.514 45.3418 199.63 46.0703 199.63 47.6994C199.63 49.3286 198.514 50.0571 197.433 50.0571L197.435 50.0591ZM197.305 46.0283C196.403 46.0283 195.76 46.6287 195.76 47.7014C195.76 48.7742 196.403 49.3746 197.305 49.3746C198.206 49.3746 198.849 48.7742 198.849 47.7014C198.849 46.6287 198.206 46.0283 197.305 46.0283Z" fill="white" stroke="white" stroke-width="0.105714" stroke-miterlimit="10"/>
<path d="M201.985 47.3231L203.616 47.2551V47.0149C203.616 46.3805 203.289 46.0122 202.5 46.0122C201.711 46.0122 201.393 46.3805 201.377 46.8448H200.577C200.611 45.9962 201.212 45.3438 202.5 45.3438C203.788 45.3438 204.363 45.9962 204.363 47.059V49.933H203.624V49.4606C203.624 49.4266 203.606 49.4086 203.572 49.4086C203.538 49.4086 203.52 49.4166 203.486 49.4606C203.167 49.8849 202.697 50.0611 202.112 50.0611C200.996 50.0611 200.351 49.4786 200.351 48.62C200.351 47.8475 200.866 47.3712 201.981 47.3251L201.985 47.3231ZM202.2 49.3906C203.059 49.3906 203.616 48.9022 203.616 47.9576V47.9055L201.985 47.9736C201.385 47.9996 201.126 48.2318 201.126 48.616C201.126 49.0884 201.513 49.3886 202.2 49.3886V49.3906Z" fill="white" stroke="white" stroke-width="0.105714" stroke-miterlimit="10"/>
<path d="M205.541 45.4699H206.304V45.9682C206.304 46.0103 206.322 46.0283 206.364 46.0283C206.406 46.0283 206.424 46.0023 206.458 45.9602C206.75 45.574 207.205 45.3418 207.858 45.3418C208.974 45.3418 209.661 45.9842 209.661 47.1431V49.931H208.887V47.2731C208.887 46.4586 208.459 46.0303 207.686 46.0303C206.826 46.0303 206.312 46.5446 206.312 47.6174V49.933H205.539V45.4739L205.541 45.4699Z" fill="white" stroke="white" stroke-width="0.105714" stroke-miterlimit="10"/>
<path d="M210.271 45.4698H211.053L212.333 49.2184C212.351 49.2704 212.367 49.2864 212.419 49.2864C212.471 49.2864 212.487 49.2684 212.505 49.2184L213.785 45.4698H214.566V45.6419L212.891 50.4453C212.599 51.2858 212.17 51.56 211.227 51.56H210.506V50.8736H211.786C211.884 50.8736 211.94 50.8395 211.966 50.7655L212.206 50.117C212.232 50.049 212.24 50.0049 212.214 49.9709C212.188 49.9369 212.172 49.9289 212.102 49.9289H211.768L210.273 45.6399V45.4678L210.271 45.4698Z" fill="white" stroke="white" stroke-width="0.105714" stroke-miterlimit="10"/>
<path d="M215.962 48.8164V49.9312H214.76V48.8164H215.962Z" fill="white" stroke="white" stroke-width="0.105714" stroke-miterlimit="10"/>
</g>
<defs>
<clipPath id="clip0_178_7165">
<rect width="216" height="60" fill="white"/>
</clipPath>
</defs>
</svg>
