<svg width="14" height="14" viewBox="0 0 14 14" fill="none" xmlns="http://www.w3.org/2000/svg">
<path d="M10.5817 12.6117C10.0683 12.7634 9.46167 12.8334 8.75 12.8334H5.25C4.53833 12.8334 3.93167 12.7634 3.41833 12.6117C3.54667 11.095 5.10417 9.89917 7 9.89917C8.89583 9.89917 10.4533 11.095 10.5817 12.6117Z" stroke="#4F4F4F" stroke-linecap="round" stroke-linejoin="round"/>
<path d="M8.74996 1.16663H5.24996C2.33329 1.16663 1.16663 2.33329 1.16663 5.24996V8.74996C1.16663 10.955 1.83163 12.1625 3.41829 12.6116C3.54663 11.095 5.10413 9.89911 6.99996 9.89911C8.89579 9.89911 10.4533 11.095 10.5816 12.6116C12.1683 12.1625 12.8333 10.955 12.8333 8.74996V5.24996C12.8333 2.33329 11.6666 1.16663 8.74996 1.16663ZM6.99996 8.26578C5.84496 8.26578 4.91163 7.32664 4.91163 6.17164C4.91163 5.01664 5.84496 4.08329 6.99996 4.08329C8.15496 4.08329 9.08829 5.01664 9.08829 6.17164C9.08829 7.32664 8.15496 8.26578 6.99996 8.26578Z" stroke="#4F4F4F" stroke-linecap="round" stroke-linejoin="round"/>
<path d="M9.08829 6.17172C9.08829 7.32672 8.15496 8.26586 6.99996 8.26586C5.84496 8.26586 4.91162 7.32672 4.91162 6.17172C4.91162 5.01672 5.84496 4.08337 6.99996 4.08337C8.15496 4.08337 9.08829 5.01672 9.08829 6.17172Z" stroke="#4F4F4F" stroke-linecap="round" stroke-linejoin="round"/>
</svg>
