<svg width="14" height="14" viewBox="0 0 14 14" fill="none" xmlns="http://www.w3.org/2000/svg">
<path d="M12.2967 5.00498V8.99496C12.2967 9.64829 11.9467 10.255 11.3808 10.5875L7.91584 12.5883C7.35001 12.915 6.65001 12.915 6.07834 12.5883L2.61334 10.5875C2.04751 10.2608 1.69751 9.65413 1.69751 8.99496V5.00498C1.69751 4.35165 2.04751 3.74496 2.61334 3.41246L6.07834 1.41163C6.64418 1.08496 7.34418 1.08496 7.91584 1.41163L11.3808 3.41246C11.9467 3.74496 12.2967 4.34581 12.2967 5.00498Z" stroke="#4F4F4F" stroke-linecap="round" stroke-linejoin="round"/>
<path d="M6.99991 6.41668C7.75056 6.41668 8.35908 5.80815 8.35908 5.05751C8.35908 4.30686 7.75056 3.69836 6.99991 3.69836C6.24927 3.69836 5.64075 4.30686 5.64075 5.05751C5.64075 5.80815 6.24927 6.41668 6.99991 6.41668Z" stroke="#4F4F4F" stroke-linecap="round" stroke-linejoin="round"/>
<path d="M9.33329 9.71829C9.33329 8.66829 8.28913 7.81665 6.99996 7.81665C5.71079 7.81665 4.66663 8.66829 4.66663 9.71829" stroke="#4F4F4F" stroke-linecap="round" stroke-linejoin="round"/>
</svg>
