<svg width="20" height="20" viewBox="0 0 20 20" fill="none" xmlns="http://www.w3.org/2000/svg">
<path d="M6.7841 2.826C6.909 2.57768 7.10043 2.36896 7.33705 2.2231C7.57366 2.07725 7.84615 2.00001 8.1241 2H11.8881C12.1668 2.00001 12.44 2.07767 12.6771 2.22428C12.9141 2.37088 13.1056 2.58063 13.2301 2.83L13.8151 4H15.5051C16.1681 4 16.804 4.26339 17.2729 4.73223C17.7417 5.20107 18.0051 5.83696 18.0051 6.5V10.261C17.4363 9.78908 16.7779 9.4371 16.0695 9.22623C15.3611 9.01537 14.6174 8.94998 13.8831 9.034C13.6451 8.08821 13.0699 7.26188 12.2657 6.71025C11.4614 6.15863 10.4833 5.91968 9.51532 6.03831C8.54729 6.15693 7.65589 6.62496 7.0086 7.35447C6.36131 8.08397 6.00269 9.02473 6.0001 10C5.99979 10.893 6.29833 11.7605 6.84817 12.4642C7.398 13.1679 8.16751 13.6673 9.0341 13.883C8.91298 14.955 9.10982 16.039 9.6001 17H4.5061C3.84306 17 3.20718 16.7366 2.73834 16.2678C2.2695 15.7989 2.0061 15.163 2.0061 14.5V6.5C2.0061 5.83696 2.2695 5.20107 2.73834 4.73223C3.20718 4.26339 3.84306 4 4.5061 4H6.1961L6.7841 2.826ZM10.0001 7C11.3931 7 12.5641 7.95 12.9021 9.236C12.0372 9.49938 11.2503 9.97156 10.611 10.6109C9.97166 11.2502 9.49948 12.0371 9.2361 12.902C8.53192 12.7155 7.9196 12.2793 7.51335 11.6746C7.1071 11.07 6.93465 10.3382 7.02817 9.61574C7.12169 8.89331 7.47478 8.22956 8.02161 7.74827C8.56843 7.26698 9.27165 7.00103 10.0001 7ZM19.0001 14.5C19.0001 15.6935 18.526 16.8381 17.6821 17.682C16.8382 18.5259 15.6936 19 14.5001 19C13.3066 19 12.162 18.5259 11.3181 17.682C10.4742 16.8381 10.0001 15.6935 10.0001 14.5C10.0001 13.3065 10.4742 12.1619 11.3181 11.318C12.162 10.4741 13.3066 10 14.5001 10C15.6936 10 16.8382 10.4741 17.6821 11.318C18.526 12.1619 19.0001 13.3065 19.0001 14.5ZM15.0001 12.5C15.0001 12.3674 14.9474 12.2402 14.8537 12.1464C14.7599 12.0527 14.6327 12 14.5001 12C14.3675 12 14.2403 12.0527 14.1465 12.1464C14.0528 12.2402 14.0001 12.3674 14.0001 12.5V14H12.5001C12.3675 14 12.2403 14.0527 12.1465 14.1464C12.0528 14.2402 12.0001 14.3674 12.0001 14.5C12.0001 14.6326 12.0528 14.7598 12.1465 14.8536C12.2403 14.9473 12.3675 15 12.5001 15H14.0001V16.5C14.0001 16.6326 14.0528 16.7598 14.1465 16.8536C14.2403 16.9473 14.3675 17 14.5001 17C14.6327 17 14.7599 16.9473 14.8537 16.8536C14.9474 16.7598 15.0001 16.6326 15.0001 16.5V15H16.5001C16.6327 15 16.7599 14.9473 16.8537 14.8536C16.9474 14.7598 17.0001 14.6326 17.0001 14.5C17.0001 14.3674 16.9474 14.2402 16.8537 14.1464C16.7599 14.0527 16.6327 14 16.5001 14H15.0001V12.5Z" fill="#BBBBBB"/>
</svg>
