<svg width="16" height="16" viewBox="0 0 16 16" fill="none" xmlns="http://www.w3.org/2000/svg">
<path d="M13.0625 0.6875H2.9375C2.34096 0.688151 1.76904 0.925414 1.34723 1.34723C0.925414 1.76904 0.688151 2.34096 0.6875 2.9375V13.0625C0.688151 13.659 0.925414 14.231 1.34723 14.6528C1.76904 15.0746 2.34096 15.3118 2.9375 15.3125H13.0625C13.659 15.3118 14.231 15.0746 14.6528 14.6528C15.0746 14.231 15.3118 13.659 15.3125 13.0625V2.9375C15.3118 2.34096 15.0746 1.76904 14.6528 1.34723C14.231 0.925414 13.659 0.688151 13.0625 0.6875ZM11.8057 5.54926L7.08066 11.1743C7.02883 11.236 6.96434 11.2859 6.89155 11.3205C6.81877 11.3551 6.73939 11.3737 6.65879 11.375H6.6493C6.57045 11.375 6.4925 11.3584 6.42049 11.3263C6.34847 11.2942 6.28402 11.2473 6.23129 11.1887L4.20629 8.93867C4.15486 8.88413 4.11486 8.81985 4.08862 8.74962C4.06239 8.67939 4.05046 8.60463 4.05354 8.52973C4.05661 8.45482 4.07463 8.38129 4.10653 8.31345C4.13843 8.2456 4.18357 8.18482 4.23929 8.13468C4.29502 8.08453 4.3602 8.04602 4.43102 8.02143C4.50184 7.99683 4.57686 7.98664 4.65167 7.99146C4.72648 7.99627 4.79958 8.01599 4.86666 8.04945C4.93375 8.08292 4.99346 8.12945 5.0423 8.18633L6.63453 9.95539L10.9443 4.82574C11.041 4.71397 11.1778 4.64474 11.3251 4.633C11.4724 4.62126 11.6184 4.66796 11.7316 4.76301C11.8447 4.85806 11.9159 4.99382 11.9298 5.14095C11.9437 5.28807 11.8991 5.43474 11.8057 5.54926Z" fill="#E1714D"/>
</svg>
