<svg width="16" height="16" viewBox="0 0 16 16" fill="none" xmlns="http://www.w3.org/2000/svg">
<path d="M12.3333 10.6667C12.6705 10.9944 14 11.8666 14 12.3334M12.3333 14.0001C12.6705 13.6724 14 12.8002 14 12.3334M14 12.3334L8.66667 12.3334" stroke="#4F4F4F" stroke-width="1.25" stroke-linecap="round" stroke-linejoin="round"/>
<path d="M7.33337 14.6667H7.15156C4.97742 14.6667 3.89035 14.6667 3.13542 14.1349C2.91912 13.9825 2.72709 13.8017 2.56517 13.5982C2.00004 12.8876 2.00004 11.8645 2.00004 9.81826V8.12129C2.00004 6.14585 2.00004 5.15812 2.31267 4.36925C2.81525 3.10103 3.87813 2.10067 5.22562 1.62765C6.06379 1.33341 7.11325 1.33341 9.21216 1.33341C10.4115 1.33341 11.0112 1.33341 11.4902 1.50155C12.2602 1.77185 12.8675 2.34348 13.1547 3.06818C13.3334 3.51896 13.3334 4.08337 13.3334 5.2122V8.66675" stroke="#4F4F4F" stroke-width="1.25" stroke-linecap="round" stroke-linejoin="round"/>
<path d="M1.99996 8C1.99996 6.7727 2.99488 5.77778 4.22218 5.77778C4.66604 5.77778 5.18932 5.85555 5.62087 5.73992C6.0043 5.63718 6.3038 5.33768 6.40654 4.95424C6.52218 4.52269 6.4444 3.99941 6.4444 3.55556C6.4444 2.32826 7.43933 1.33333 8.66663 1.33333" stroke="#4F4F4F" stroke-width="1.25" stroke-linecap="round" stroke-linejoin="round"/>
</svg>
