<svg width="14" height="14" viewBox="0 0 14 14" fill="none" xmlns="http://www.w3.org/2000/svg">
<path d="M7.07 7.45499C7.02917 7.44915 6.97667 7.44915 6.93 7.45499C5.90334 7.41999 5.08667 6.57999 5.08667 5.54749C5.08667 4.49166 5.93834 3.63416 7 3.63416C8.05584 3.63416 8.91334 4.49166 8.91334 5.54749C8.9075 6.57999 8.09667 7.41999 7.07 7.45499Z" stroke="#4F4F4F" stroke-linecap="round" stroke-linejoin="round"/>
<path d="M10.9317 11.305C9.89336 12.2558 8.51669 12.8333 7.00003 12.8333C5.48336 12.8333 4.10669 12.2558 3.06836 11.305C3.12669 10.7566 3.47669 10.22 4.10086 9.79997C5.69919 8.73831 8.31253 8.73831 9.89919 9.79997C10.5234 10.22 10.8734 10.7566 10.9317 11.305Z" stroke="#4F4F4F" stroke-linecap="round" stroke-linejoin="round"/>
<path d="M6.99996 12.8334C10.2216 12.8334 12.8333 10.2217 12.8333 7.00002C12.8333 3.77836 10.2216 1.16669 6.99996 1.16669C3.7783 1.16669 1.16663 3.77836 1.16663 7.00002C1.16663 10.2217 3.7783 12.8334 6.99996 12.8334Z" stroke="#4F4F4F" stroke-linecap="round" stroke-linejoin="round"/>
</svg>
