<svg width="16" height="16" viewBox="0 0 16 16" fill="none" xmlns="http://www.w3.org/2000/svg">
<path d="M11.3333 8.93335V10.9334C11.3333 13.6 10.2666 14.6667 7.59998 14.6667H5.06665C2.39998 14.6667 1.33331 13.6 1.33331 10.9334V8.40002C1.33331 5.73335 2.39998 4.66669 5.06665 4.66669H7.06665" stroke="#636363" stroke-width="1.25" stroke-linecap="round" stroke-linejoin="round"/>
<path d="M11.3333 8.93335H9.19998C7.59998 8.93335 7.06665 8.40002 7.06665 6.80002V4.66669L11.3333 8.93335Z" stroke="#636363" stroke-width="1.25" stroke-linecap="round" stroke-linejoin="round"/>
<path d="M7.73334 1.33331H10.4" stroke="#636363" stroke-width="1.25" stroke-linecap="round" stroke-linejoin="round"/>
<path d="M4.66669 3.33331C4.66669 2.22665 5.56002 1.33331 6.66669 1.33331H8.41335" stroke="#636363" stroke-width="1.25" stroke-linecap="round" stroke-linejoin="round"/>
<path d="M14.6667 5.33331V9.45998C14.6667 10.4933 13.8267 11.3333 12.7933 11.3333" stroke="#636363" stroke-width="1.25" stroke-linecap="round" stroke-linejoin="round"/>
<path d="M14.6667 5.33331H12.6667C11.1667 5.33331 10.6667 4.83331 10.6667 3.33331V1.33331L14.6667 5.33331Z" stroke="#636363" stroke-width="1.25" stroke-linecap="round" stroke-linejoin="round"/>
</svg>
