<svg width="16" height="16" viewBox="0 0 16 16" fill="none" xmlns="http://www.w3.org/2000/svg">
<path d="M10.3333 8.76663H8.88667C7.7 8.76663 6.73333 7.80663 6.73333 6.61329V5.16663C6.73333 4.89329 6.51333 4.66663 6.23333 4.66663H4.12C2.58 4.66663 1.33333 5.66663 1.33333 7.45329V11.88C1.33333 13.6666 2.58 14.6666 4.12 14.6666H8.04667C9.58667 14.6666 10.8333 13.6666 10.8333 11.88V9.26663C10.8333 8.98663 10.6067 8.76663 10.3333 8.76663Z" fill="#E1714D"/>
<path d="M11.88 1.33337H10.5667H9.84H7.95333C6.44667 1.33337 5.22667 2.29337 5.17333 4.00671C5.21333 4.00671 5.24667 4.00004 5.28667 4.00004H7.17333H7.9H9.21333C10.7533 4.00004 12 5.00004 12 6.78671V8.10004V9.90671V11.22C12 11.26 11.9933 11.2934 11.9933 11.3267C13.48 11.28 14.6667 10.2934 14.6667 8.55337V7.24004V5.43337V4.12004C14.6667 2.33337 13.42 1.33337 11.88 1.33337Z" fill="#E1714D"/>
<path d="M7.98667 4.76662C7.78 4.55996 7.42667 4.69996 7.42667 4.98662V6.73329C7.42667 7.46662 8.04667 8.06662 8.80667 8.06662C9.28 8.07329 9.94 8.07329 10.5067 8.07329C10.7933 8.07329 10.94 7.73996 10.74 7.53996C10.0133 6.81329 8.72 5.51329 7.98667 4.76662Z" fill="#E1714D"/>
</svg>
