<svg width="80" height="28" viewBox="0 0 80 28" fill="none" xmlns="http://www.w3.org/2000/svg">
<g clip-path="url(#clip0_79_3165)">
<path d="M12.2943 18.2384C12.8368 17.6822 13.3765 17.1232 13.9223 16.5704C15.4578 15.0152 16.9958 13.4626 18.5789 11.9008C18.6753 11.8931 18.7256 11.8936 18.776 11.894C18.7798 13.5264 18.7863 15.1587 18.7811 16.791C18.7808 16.8991 18.7168 17.0326 18.6394 17.1111C16.1985 19.5868 13.7527 22.0577 11.3044 24.5259C11.2386 24.5923 11.1367 24.622 11.0226 24.6474C10.9244 24.5948 10.8554 24.5637 10.7864 24.5326C10.7029 24.4562 10.616 24.3833 10.5365 24.303C8.22723 21.97 5.92132 19.6336 3.6053 17.3075C3.4106 17.112 3.33935 16.9215 3.34162 16.6494C3.35444 15.1087 3.34861 13.5679 3.37922 11.995C3.45965 11.962 3.50999 11.961 3.56033 11.9601C3.70783 12.1012 3.85871 12.2389 4.00234 12.384C6.30743 14.7121 8.61159 17.0412 10.9271 19.415C11.0416 19.6036 11.1032 19.5742 11.1329 19.4122C11.4589 19.0746 11.785 18.737 12.155 18.3884C12.2308 18.3311 12.2626 18.2847 12.2943 18.2384Z" fill="#F26331"/>
<path d="M8.86422 11.4624C8.19533 12.1387 7.54075 12.7949 6.89334 13.4582C6.68643 13.6702 6.52735 13.7116 6.29236 13.4657C5.54946 12.6883 4.78218 11.9346 4.05651 11.2042C6.41374 8.82157 8.75911 6.45092 11.0781 4.10693C13.3413 6.39441 15.6561 8.73395 18.012 11.1152C17.9693 11.1735 17.8934 11.3078 17.7895 11.4142C17.1256 12.0935 16.4513 12.7623 15.7901 13.4442C15.5719 13.6693 15.4102 13.7077 15.1647 13.4557C13.7993 12.0541 12.418 10.6684 11.029 9.26402C10.309 9.99524 9.59516 10.7202 8.86422 11.4624Z" fill="#F26331"/>
<path d="M38.2388 16.9346C38.6672 17.0525 39.0797 17.1336 39.4571 17.2974C39.9318 17.5035 40.1128 17.9817 40.157 18.4417C40.2874 19.7978 39.9709 20.5842 38.4647 21.0956C37.2996 21.4912 36.0921 21.4368 34.9227 21.0656C34.357 20.8861 33.874 20.5362 33.5387 20.0111C33.0683 19.2745 33.2099 18.3319 33.7617 17.6378C33.8207 17.5635 33.8604 17.4033 33.8216 17.3309C33.4971 16.7249 33.5076 16.04 33.9418 15.549C34.1629 15.299 34.2131 15.1705 34.0402 14.829C33.6513 14.0611 33.6727 13.2341 34.1568 12.4958C34.652 11.7408 35.3772 11.3429 36.2703 11.1897C36.8209 11.0953 37.3245 11.2236 37.8506 11.288C38.0208 11.3088 38.2505 11.1545 38.3917 11.0164C38.5814 10.8307 38.7215 10.8341 38.9054 10.994C39.1673 11.2217 39.4348 11.4428 39.7031 11.6627C39.8626 11.7934 39.8733 11.9125 39.7097 12.0521C39.5623 12.1778 39.428 12.3193 39.285 12.4567C39.8427 13.169 39.8989 13.9422 39.5741 14.7329C39.2472 15.5288 38.6107 15.97 37.7782 16.1022C37.0572 16.2166 36.3361 16.2489 35.6134 16.0569C35.4999 16.0267 35.3088 16.1945 35.2002 16.314C35.1716 16.3455 35.2902 16.6029 35.3882 16.6452C35.6365 16.7523 35.9085 16.8381 36.1763 16.8571C36.8518 16.905 37.5301 16.9114 38.2388 16.9346ZM36.1867 18.3154C35.87 18.2744 35.5532 18.2334 35.2313 18.1917C35.1685 18.268 35.0854 18.3448 35.0314 18.4386C34.7366 18.9506 34.803 19.3545 35.327 19.5417C36.1316 19.8292 36.9776 19.882 37.8136 19.6292C38.4153 19.4472 38.4116 19.4374 38.4644 18.8372C38.4697 18.7763 38.491 18.7168 38.509 18.6388C38.2979 18.5502 38.1054 18.4143 37.9019 18.3947C37.3546 18.3417 36.8027 18.3384 36.1867 18.3154ZM37.1798 12.8601C36.7897 12.723 36.4229 12.7791 36.0607 12.9716C35.7202 13.1525 35.5584 13.4673 35.5613 13.8101C35.5647 14.209 35.7369 14.5593 36.1666 14.7127C36.5519 14.8502 36.9261 14.8663 37.3142 14.7283C37.766 14.5675 38.0499 14.1649 37.9797 13.6922C37.9159 13.2623 37.6153 13.0192 37.1798 12.8601Z" fill="#1B2E3A"/>
<path d="M75.8325 15.0011C74.7058 15.0011 73.6133 15.0011 72.5193 15.0011C72.6218 15.8228 73.1367 16.1978 73.8074 16.3734C74.5447 16.5663 75.1793 16.375 75.6464 15.7229C75.6853 15.6686 75.852 15.6504 75.9236 15.687C76.2569 15.8571 76.5845 16.0417 76.8959 16.249C76.9483 16.2839 76.9558 16.4848 76.9083 16.5606C76.4606 17.2749 75.7819 17.6629 74.9862 17.8234C74.2454 17.9728 73.5111 17.9307 72.7897 17.6389C71.7447 17.2161 71.0167 16.5135 70.784 15.3825C70.5462 14.2266 70.7166 13.1274 71.5212 12.2301C72.0682 11.6201 72.7817 11.26 73.6182 11.2031C74.3111 11.1559 74.9771 11.2684 75.5765 11.6246C76.3608 12.0905 76.831 12.8004 76.9883 13.7044C77.0462 14.0374 77.0363 14.3822 77.0635 14.7211C77.0803 14.9291 76.9987 15.0125 76.7887 15.0042C76.4818 14.992 76.174 15.0011 75.8325 15.0011ZM73.2052 13.7582C73.8943 13.7582 74.5833 13.7582 75.2734 13.7582C75.2455 13.2202 74.6975 12.7244 73.9756 12.6608C73.4706 12.6163 72.6275 13.0676 72.4977 13.7582C72.7144 13.7582 72.9264 13.7582 73.2052 13.7582Z" fill="#1B2E3A"/>
<path d="M53.0995 11.3886C54.0588 11.7128 54.6337 12.4143 54.65 13.3616C54.6682 14.4193 54.6432 15.4778 54.66 16.5356C54.666 16.9129 54.7394 17.2891 54.7851 17.6939C54.2626 17.6939 53.7522 17.7037 53.243 17.6836C53.1645 17.6805 53.0563 17.5522 53.0246 17.4599C52.9866 17.349 53.0156 17.2145 53.0156 17.0044C52.6685 17.4469 52.2734 17.6802 51.805 17.7774C50.3472 18.0801 48.8061 17.3469 48.8561 15.6592C48.8852 14.6772 49.3279 14.1253 50.5017 13.8387C51.0276 13.7102 51.5794 13.6911 52.1191 13.6189C52.2279 13.6044 52.3378 13.5839 52.4416 13.5489C52.5669 13.5067 52.7887 13.4461 52.7887 13.3935C52.7886 13.2401 52.735 13.0563 52.6379 12.9387C52.2552 12.4752 51.7373 12.5714 51.2547 12.6878C50.9235 12.7677 50.6168 12.9517 50.2673 13.1028C49.9873 12.8013 49.6798 12.4702 49.3341 12.0979C50.4765 11.1241 51.7327 11.0221 53.0995 11.3886ZM50.8791 16.242C51.1487 16.2886 51.4242 16.3963 51.6867 16.3703C52.4111 16.2988 52.8564 15.8967 52.8812 15.1529C52.8889 14.9225 52.7989 14.83 52.5823 14.8641C52.1135 14.938 51.6328 14.9735 51.1806 15.1068C50.594 15.2796 50.466 15.7603 50.8791 16.242Z" fill="#1B2E3A"/>
<path d="M60.9173 11.2735C61.9464 11.6596 62.4124 12.4366 62.435 13.4753C62.4653 14.8697 62.4425 16.2652 62.4425 17.6773C61.9147 17.6773 61.3407 17.6773 60.7344 17.6773C60.7344 16.6166 60.7447 15.562 60.7284 14.5078C60.7233 14.1745 60.6822 13.8328 60.5959 13.5119C60.4415 12.9373 60.063 12.6561 59.5725 12.7264C59.034 12.8036 58.5922 13.2117 58.5602 13.7136C58.497 14.7053 58.501 15.7014 58.4809 16.6957C58.4745 17.0158 58.4799 17.3362 58.4799 17.6751C57.8885 17.6751 57.3144 17.6751 56.722 17.6751C56.722 15.5766 56.722 13.478 56.722 11.3604C57.2955 11.3604 57.8699 11.3604 58.4686 11.3604C58.4686 11.5243 58.4686 11.6898 58.4686 11.955C59.1579 11.1004 60.001 11.0935 60.9173 11.2735Z" fill="#1B2E3A"/>
<path d="M68.77 11.5647C69.0588 11.7789 69.333 11.9698 69.5856 12.1865C69.6393 12.2326 69.6595 12.4064 69.6177 12.4639C69.3627 12.8146 69.0853 13.1488 68.8152 13.4886C67.5836 12.4377 66.6331 12.6508 66.1402 13.2456C65.4887 14.0321 65.4521 15.1434 66.3112 15.914C66.9561 16.4923 67.8785 16.3259 68.8685 15.3901C69.1959 15.7422 69.5294 16.0905 69.8451 16.4546C69.8811 16.4961 69.8475 16.6552 69.7952 16.7108C68.4115 18.183 66.199 18.3294 64.8 16.9397C63.9804 16.1255 63.7901 15.1478 63.933 14.0363C64.011 13.4296 64.222 12.9024 64.5605 12.4082C64.9046 11.9057 65.4132 11.6375 65.9442 11.4161C66.8933 11.0205 67.831 11.1238 68.77 11.5647Z" fill="#1B2E3A"/>
<path d="M46.387 7.4751C46.6699 7.4751 46.9188 7.4751 47.1876 7.4751C47.1876 10.878 47.1876 14.2655 47.1876 17.6736C46.5966 17.6736 45.9997 17.6736 45.3828 17.6736C45.3828 14.2911 45.3828 10.9035 45.3828 7.4751C45.7021 7.4751 46.0276 7.4751 46.387 7.4751Z" fill="#1B2E3A"/>
<path d="M27.7422 11.3416C28.2063 11.3416 28.637 11.3416 29.1146 11.3416C27.9399 13.5738 26.7801 15.7778 25.5946 18.0305C24.4101 15.7766 23.2576 13.5836 22.0794 11.3416C22.7283 11.3416 23.307 11.329 23.8842 11.3534C23.987 11.3577 24.1233 11.4957 24.1765 11.6054C24.6205 12.5228 25.0483 13.4481 25.4824 14.3704C25.5058 14.42 25.5412 14.4638 25.6087 14.569C25.7044 14.3636 25.7814 14.1983 25.8585 14.0329C26.2423 13.2094 26.6354 12.3901 27.0058 11.5605C27.1695 11.1937 27.4705 11.3978 27.7422 11.3416Z" fill="#1B2E3A"/>
<path d="M41.6738 16.589C41.6738 14.8305 41.6738 13.1065 41.6738 11.3621C42.2619 11.3621 42.836 11.3621 43.4301 11.3621C43.4301 13.4556 43.4301 15.5543 43.4301 17.6735C42.8619 17.6735 42.2878 17.6735 41.6738 17.6735C41.6738 17.3274 41.6738 16.9754 41.6738 16.589Z" fill="#1B2E3A"/>
<path d="M31.836 15.4846C31.836 16.2308 31.836 16.9424 31.836 17.6741C31.2471 17.6741 30.673 17.6741 30.0793 17.6741C30.0793 15.5793 30.0793 13.4806 30.0793 11.3618C30.6487 11.3618 31.2228 11.3618 31.836 11.3618C31.836 12.7218 31.836 14.0859 31.836 15.4846Z" fill="#1B2E3A"/>
<path d="M29.8637 9.01971C29.7496 8.633 29.7832 8.29639 29.9867 7.97241C30.1553 7.70388 30.3845 7.55636 30.6952 7.54531C31.0644 7.53218 31.4339 7.50562 31.7301 7.81249C32.032 8.12523 32.1319 8.58498 31.9612 9.02425C31.8464 9.31965 31.338 9.69417 30.9934 9.70161C30.4573 9.71317 30.1399 9.44863 29.8637 9.01971Z" fill="#1B2E3A"/>
<path d="M42.9551 9.62108C42.4035 9.78635 41.9075 9.64869 41.6366 9.26785C41.3881 8.91843 41.4102 8.31071 41.6693 7.91122C41.9724 7.44407 42.443 7.50765 42.8707 7.5582C43.2564 7.60378 43.5348 7.90047 43.6334 8.27175C43.7444 8.68962 43.6395 9.09508 43.3121 9.40518C43.219 9.49329 43.0939 9.54684 42.9551 9.62108Z" fill="#1B2E3A"/>
<path d="M11.1081 19.4155C11.1032 19.5751 11.0416 19.6048 10.9359 19.4362C10.9836 19.4144 11.0334 19.4167 11.1081 19.4155Z" fill="#F26331"/>
<path d="M10.794 24.5518C10.8554 24.5638 10.9244 24.5951 10.9976 24.6515C10.9351 24.6415 10.8683 24.6063 10.794 24.5518Z" fill="#F26331"/>
<path d="M18.7805 11.8706C18.7256 11.8938 18.6753 11.8933 18.5998 11.8921C18.6447 11.8765 18.7148 11.8617 18.7805 11.8706Z" fill="#F26331"/>
<path d="M12.2708 18.2422C12.2626 18.285 12.2308 18.3316 12.1759 18.3803C12.1842 18.337 12.2158 18.2915 12.2708 18.2422Z" fill="#F26331"/>
</g>
<defs>
<clipPath id="clip0_79_3165">
<rect width="80" height="27.8261" fill="white" transform="translate(0 0.0869141)"/>
</clipPath>
</defs>
</svg>
