<svg width="16" height="16" viewBox="0 0 16 16" fill="none" xmlns="http://www.w3.org/2000/svg">
<path d="M11.3333 6.66658H12.6667C14 6.66658 14.6667 5.99992 14.6667 4.66659V3.33325C14.6667 1.99992 14 1.33325 12.6667 1.33325H11.3333C10 1.33325 9.33333 1.99992 9.33333 3.33325V4.66659C9.33333 5.99992 10 6.66658 11.3333 6.66658Z" stroke="#636363" stroke-width="1.25" stroke-miterlimit="10" stroke-linecap="round" stroke-linejoin="round"/>
<path d="M3.33333 14.6666H4.66667C6 14.6666 6.66667 13.9999 6.66667 12.6666V11.3333C6.66667 9.99992 6 9.33325 4.66667 9.33325H3.33333C2 9.33325 1.33333 9.99992 1.33333 11.3333V12.6666C1.33333 13.9999 2 14.6666 3.33333 14.6666Z" stroke="#636363" stroke-width="1.25" stroke-miterlimit="10" stroke-linecap="round" stroke-linejoin="round"/>
<path d="M4 6.66658C5.47276 6.66658 6.66667 5.47268 6.66667 3.99992C6.66667 2.52716 5.47276 1.33325 4 1.33325C2.52724 1.33325 1.33333 2.52716 1.33333 3.99992C1.33333 5.47268 2.52724 6.66658 4 6.66658Z" stroke="#636363" stroke-width="1.25" stroke-miterlimit="10" stroke-linecap="round" stroke-linejoin="round"/>
<path d="M12 14.6666C13.4728 14.6666 14.6667 13.4727 14.6667 11.9999C14.6667 10.5272 13.4728 9.33325 12 9.33325C10.5272 9.33325 9.33333 10.5272 9.33333 11.9999C9.33333 13.4727 10.5272 14.6666 12 14.6666Z" stroke="#636363" stroke-width="1.25" stroke-miterlimit="10" stroke-linecap="round" stroke-linejoin="round"/>
</svg>
