<svg width="22" height="23" viewBox="0 0 22 23" fill="none" xmlns="http://www.w3.org/2000/svg">
<path d="M16.0692 7.6225C16.005 7.61333 15.9408 7.61333 15.8767 7.6225C14.4558 7.57667 13.3283 6.4125 13.3283 4.9825C13.3283 3.525 14.5108 2.33333 15.9775 2.33333C17.435 2.33333 18.6267 3.51583 18.6267 4.9825C18.6175 6.4125 17.49 7.57667 16.0692 7.6225Z" fill="#AAAAAA"/>
<path d="M19.0575 13.975C18.0308 14.6625 16.5917 14.9192 15.2625 14.745C15.6108 13.9933 15.7942 13.1592 15.8033 12.2792C15.8033 11.3625 15.6017 10.4917 15.2167 9.73083C16.5733 9.5475 18.0125 9.80417 19.0483 10.4917C20.4967 11.445 20.4967 13.0125 19.0575 13.975Z" fill="#AAAAAA"/>
<path d="M5.90333 7.6225C5.9675 7.61333 6.03166 7.61333 6.09583 7.6225C7.51666 7.57667 8.64416 6.4125 8.64416 4.9825C8.64416 3.51583 7.46166 2.33333 5.995 2.33333C4.5375 2.33333 3.355 3.51583 3.355 4.9825C3.355 6.4125 4.4825 7.57667 5.90333 7.6225Z" fill="#AAAAAA"/>
<path d="M6.00417 12.2792C6.00417 13.1683 6.19667 14.0117 6.545 14.7725C5.2525 14.91 3.905 14.635 2.915 13.9842C1.46667 13.0217 1.46667 11.4542 2.915 10.4917C3.89583 9.83167 5.28 9.56583 6.58167 9.7125C6.20583 10.4825 6.00417 11.3533 6.00417 12.2792Z" fill="#AAAAAA"/>
<path d="M11.11 15.0475C11.0367 15.0383 10.9542 15.0383 10.8717 15.0475C9.18499 14.9925 7.83749 13.6083 7.83749 11.9033C7.84666 10.1617 9.24916 8.75 11 8.75C12.7417 8.75 14.1533 10.1617 14.1533 11.9033C14.1442 13.6083 12.8058 14.9925 11.11 15.0475Z" fill="#AAAAAA"/>
<path d="M8.13084 16.945C6.74667 17.8708 6.74667 19.3925 8.13084 20.3092C9.7075 21.3633 12.2925 21.3633 13.8692 20.3092C15.2533 19.3833 15.2533 17.8617 13.8692 16.945C12.3017 15.8908 9.71667 15.8908 8.13084 16.945Z" fill="#AAAAAA"/>
</svg>
