<svg width="16" height="16" viewBox="0 0 16 16" fill="none" xmlns="http://www.w3.org/2000/svg">
<path d="M11.6867 5.17998C11.64 5.17331 11.5934 5.17331 11.5467 5.17998C10.5134 5.14665 9.69336 4.29998 9.69336 3.25998C9.69336 2.19998 10.5534 1.33331 11.62 1.33331C12.68 1.33331 13.5467 2.19331 13.5467 3.25998C13.54 4.29998 12.72 5.14665 11.6867 5.17998Z" fill="#E1714D"/>
<path d="M13.86 9.80002C13.1133 10.3 12.0666 10.4867 11.1 10.36C11.3533 9.81336 11.4866 9.20669 11.4933 8.56669C11.4933 7.90003 11.3467 7.26669 11.0667 6.71336C12.0533 6.58002 13.1 6.76669 13.8533 7.26669C14.9067 7.96002 14.9067 9.10002 13.86 9.80002Z" fill="#E1714D"/>
<path d="M4.29334 5.17998C4.34 5.17331 4.38667 5.17331 4.43334 5.17998C5.46667 5.14665 6.28667 4.29998 6.28667 3.25998C6.28667 2.19331 5.42667 1.33331 4.36 1.33331C3.3 1.33331 2.44 2.19331 2.44 3.25998C2.44 4.29998 3.26 5.14665 4.29334 5.17998Z" fill="#E1714D"/>
<path d="M4.36668 8.5667C4.36668 9.21336 4.50668 9.8267 4.76002 10.38C3.82002 10.48 2.84002 10.28 2.12002 9.8067C1.06668 9.1067 1.06668 7.96669 2.12002 7.26669C2.83335 6.78669 3.84002 6.59336 4.78668 6.70003C4.51335 7.26003 4.36668 7.89336 4.36668 8.5667Z" fill="#E1714D"/>
<path d="M8.08001 10.58C8.02668 10.5733 7.96668 10.5733 7.90668 10.58C6.68001 10.54 5.70001 9.53333 5.70001 8.29333C5.70668 7.02667 6.72668 6 8.00001 6C9.26668 6 10.2933 7.02667 10.2933 8.29333C10.2867 9.53333 9.31335 10.54 8.08001 10.58Z" fill="#E1714D"/>
<path d="M5.91333 11.96C4.90666 12.6333 4.90666 13.74 5.91333 14.4067C7.05999 15.1733 8.93999 15.1733 10.0867 14.4067C11.0933 13.7333 11.0933 12.6267 10.0867 11.96C8.94666 11.1933 7.06666 11.1933 5.91333 11.96Z" fill="#E1714D"/>
</svg>
