<svg width="28" height="28" viewBox="0 0 28 28" fill="none" xmlns="http://www.w3.org/2000/svg">
<rect x="0.25" y="0.25" width="27.5" height="27.5" rx="3.75" fill="#F8F8F8"/>
<rect x="0.25" y="0.25" width="27.5" height="27.5" rx="3.75" stroke="#E4E4E4" stroke-width="0.5"/>
<path d="M14 8.66671C12.9391 8.66671 11.9217 9.08813 11.1715 9.83828C10.4214 10.5884 9.99996 11.6058 9.99996 12.6667V18M14 8.66671C15.0608 8.66671 16.0782 9.08813 16.8284 9.83828C17.5785 10.5884 18 11.6058 18 12.6667V18M14 8.66671C14.1768 8.66671 14.3463 8.59647 14.4714 8.47145C14.5964 8.34642 14.6666 8.17685 14.6666 8.00004C14.6666 7.82323 14.5964 7.65366 14.4714 7.52864C14.3463 7.40361 14.1768 7.33337 14 7.33337C13.8231 7.33337 13.6536 7.40361 13.5286 7.52864C13.4035 7.65366 13.3333 7.82323 13.3333 8.00004C13.3333 8.17685 13.4035 8.34642 13.5286 8.47145C13.6536 8.59647 13.8231 8.66671 14 8.66671ZM19.3333 18H8.66663M15.3333 19.3334C15.3333 19.687 15.1928 20.0261 14.9428 20.2762C14.6927 20.5262 14.3536 20.6667 14 20.6667C13.6463 20.6667 13.3072 20.5262 13.0572 20.2762C12.8071 20.0261 12.6666 19.687 12.6666 19.3334" stroke="#4F4F4F" stroke-width="1.25" stroke-linecap="round" stroke-linejoin="round"/>
<circle cx="20" cy="8" r="2" fill="#E53A3A"/>
</svg>
